<mxfile host="app.diagrams.net" modified="2024-01-17T17:41:27.199Z" agent="Mozilla/5.0 (Macintosh; Intel Mac OS X 10_15_7) AppleWebKit/537.36 (KHTML, like Gecko) Chrome/120.0.0.0 Safari/537.36" etag="DdnVuAAjqty1KIX0IwM7" version="22.1.18" type="github">
  <diagram name="第 1 页" id="hvRi9Lwm7bHGXfthQWpe">
    <mxGraphModel dx="1026" dy="650" grid="1" gridSize="10" guides="1" tooltips="1" connect="1" arrows="1" fold="1" page="1" pageScale="1" pageWidth="827" pageHeight="1169" math="0" shadow="0">
      <root>
        <mxCell id="0" />
        <mxCell id="1" parent="0" />
        <mxCell id="49X9HPziH3rjqTpUojpf-10" value="" style="edgeStyle=orthogonalEdgeStyle;rounded=0;orthogonalLoop=1;jettySize=auto;html=1;entryX=0;entryY=0.5;entryDx=0;entryDy=0;exitX=1;exitY=0.5;exitDx=0;exitDy=0;" edge="1" parent="1" source="49X9HPziH3rjqTpUojpf-22" target="49X9HPziH3rjqTpUojpf-2">
          <mxGeometry relative="1" as="geometry">
            <mxPoint x="170" y="320" as="sourcePoint" />
          </mxGeometry>
        </mxCell>
        <mxCell id="49X9HPziH3rjqTpUojpf-12" style="edgeStyle=orthogonalEdgeStyle;rounded=0;orthogonalLoop=1;jettySize=auto;html=1;entryX=0;entryY=0.5;entryDx=0;entryDy=0;exitX=1;exitY=0.5;exitDx=0;exitDy=0;" edge="1" parent="1" source="49X9HPziH3rjqTpUojpf-22" target="49X9HPziH3rjqTpUojpf-11">
          <mxGeometry relative="1" as="geometry">
            <mxPoint x="170" y="320" as="sourcePoint" />
          </mxGeometry>
        </mxCell>
        <mxCell id="49X9HPziH3rjqTpUojpf-5" value="" style="edgeStyle=orthogonalEdgeStyle;rounded=0;orthogonalLoop=1;jettySize=auto;html=1;entryX=0;entryY=0.5;entryDx=0;entryDy=0;" edge="1" parent="1" source="49X9HPziH3rjqTpUojpf-2" target="49X9HPziH3rjqTpUojpf-4">
          <mxGeometry relative="1" as="geometry" />
        </mxCell>
        <mxCell id="49X9HPziH3rjqTpUojpf-14" style="edgeStyle=orthogonalEdgeStyle;rounded=0;orthogonalLoop=1;jettySize=auto;html=1;exitX=1;exitY=0.5;exitDx=0;exitDy=0;entryX=0;entryY=0.5;entryDx=0;entryDy=0;" edge="1" parent="1" source="49X9HPziH3rjqTpUojpf-2" target="49X9HPziH3rjqTpUojpf-13">
          <mxGeometry relative="1" as="geometry" />
        </mxCell>
        <mxCell id="49X9HPziH3rjqTpUojpf-2" value="string&lt;br&gt;STDIN, --eval" style="rounded=0;whiteSpace=wrap;html=1;" vertex="1" parent="1">
          <mxGeometry x="280" y="190" width="80" height="40" as="geometry" />
        </mxCell>
        <mxCell id="49X9HPziH3rjqTpUojpf-7" value="" style="edgeStyle=orthogonalEdgeStyle;rounded=0;orthogonalLoop=1;jettySize=auto;html=1;" edge="1" parent="1" source="49X9HPziH3rjqTpUojpf-4" target="49X9HPziH3rjqTpUojpf-6">
          <mxGeometry relative="1" as="geometry" />
        </mxCell>
        <mxCell id="49X9HPziH3rjqTpUojpf-9" style="edgeStyle=orthogonalEdgeStyle;rounded=0;orthogonalLoop=1;jettySize=auto;html=1;entryX=0;entryY=0.5;entryDx=0;entryDy=0;" edge="1" parent="1" source="49X9HPziH3rjqTpUojpf-4" target="49X9HPziH3rjqTpUojpf-8">
          <mxGeometry relative="1" as="geometry" />
        </mxCell>
        <mxCell id="49X9HPziH3rjqTpUojpf-4" value="--input-type" style="rounded=0;whiteSpace=wrap;html=1;" vertex="1" parent="1">
          <mxGeometry x="440" y="190" width="80" height="40" as="geometry" />
        </mxCell>
        <mxCell id="49X9HPziH3rjqTpUojpf-6" value="module" style="rounded=0;whiteSpace=wrap;html=1;" vertex="1" parent="1">
          <mxGeometry x="600" y="160" width="80" height="40" as="geometry" />
        </mxCell>
        <mxCell id="49X9HPziH3rjqTpUojpf-8" value="commonjs" style="rounded=0;whiteSpace=wrap;html=1;" vertex="1" parent="1">
          <mxGeometry x="600" y="220" width="80" height="40" as="geometry" />
        </mxCell>
        <mxCell id="49X9HPziH3rjqTpUojpf-20" value="" style="edgeStyle=orthogonalEdgeStyle;rounded=0;orthogonalLoop=1;jettySize=auto;html=1;" edge="1" parent="1" source="49X9HPziH3rjqTpUojpf-11" target="49X9HPziH3rjqTpUojpf-19">
          <mxGeometry relative="1" as="geometry" />
        </mxCell>
        <mxCell id="49X9HPziH3rjqTpUojpf-24" style="edgeStyle=orthogonalEdgeStyle;rounded=0;orthogonalLoop=1;jettySize=auto;html=1;exitX=1;exitY=0.5;exitDx=0;exitDy=0;entryX=0;entryY=0.5;entryDx=0;entryDy=0;" edge="1" parent="1" source="49X9HPziH3rjqTpUojpf-11" target="49X9HPziH3rjqTpUojpf-23">
          <mxGeometry relative="1" as="geometry" />
        </mxCell>
        <mxCell id="49X9HPziH3rjqTpUojpf-11" value="file" style="rounded=0;whiteSpace=wrap;html=1;" vertex="1" parent="1">
          <mxGeometry x="280" y="380" width="80" height="40" as="geometry" />
        </mxCell>
        <mxCell id="49X9HPziH3rjqTpUojpf-18" style="edgeStyle=orthogonalEdgeStyle;rounded=0;orthogonalLoop=1;jettySize=auto;html=1;exitX=1;exitY=0.5;exitDx=0;exitDy=0;entryX=0;entryY=0.5;entryDx=0;entryDy=0;" edge="1" parent="1" source="49X9HPziH3rjqTpUojpf-13" target="49X9HPziH3rjqTpUojpf-17">
          <mxGeometry relative="1" as="geometry" />
        </mxCell>
        <mxCell id="49X9HPziH3rjqTpUojpf-13" value="no --input-type" style="rounded=0;whiteSpace=wrap;html=1;" vertex="1" parent="1">
          <mxGeometry x="440" y="290" width="80" height="40" as="geometry" />
        </mxCell>
        <mxCell id="49X9HPziH3rjqTpUojpf-17" value="--experimental-default-type" style="rounded=0;whiteSpace=wrap;html=1;" vertex="1" parent="1">
          <mxGeometry x="600" y="290" width="160" height="40" as="geometry" />
        </mxCell>
        <mxCell id="49X9HPziH3rjqTpUojpf-19" value=".mjs" style="rounded=0;whiteSpace=wrap;html=1;" vertex="1" parent="1">
          <mxGeometry x="440" y="380" width="80" height="40" as="geometry" />
        </mxCell>
        <mxCell id="49X9HPziH3rjqTpUojpf-22" value="input" style="rounded=0;whiteSpace=wrap;html=1;" vertex="1" parent="1">
          <mxGeometry x="80" y="380" width="80" height="40" as="geometry" />
        </mxCell>
        <mxCell id="49X9HPziH3rjqTpUojpf-23" value=".js" style="rounded=0;whiteSpace=wrap;html=1;" vertex="1" parent="1">
          <mxGeometry x="440" y="450" width="80" height="40" as="geometry" />
        </mxCell>
      </root>
    </mxGraphModel>
  </diagram>
</mxfile>
